<?xml version="1.0" standalone="no"?>
<!DOCTYPE svg PUBLIC "-//W3C//DTD SVG 20010904//EN"
 "http://www.w3.org/TR/2001/REC-SVG-20010904/DTD/svg10.dtd">
<svg version="1.0" xmlns="http://www.w3.org/2000/svg"
 width="512.000000pt" height="512.000000pt" viewBox="0 0 512.000000 512.000000"
 preserveAspectRatio="xMidYMid meet">

<g transform="translate(0.000000,512.000000) scale(0.100000,-0.100000)"
fill="#000000" stroke="none">
<path d="M2321 5110 c-497 -48 -990 -251 -1376 -565 -114 -92 -294 -274 -384
-387 -229 -287 -417 -675 -495 -1023 -49 -218 -60 -325 -60 -575 0 -250 11
-357 60 -575 79 -355 272 -749 509 -1040 92 -114 274 -294 387 -384 287 -229
675 -417 1023 -495 218 -49 325 -60 575 -60 250 0 357 11 575 60 261 58 603
204 828 353 389 259 688 599 893 1016 125 255 196 484 241 775 24 161 24 539
0 700 -45 291 -116 520 -241 775 -134 272 -283 480 -498 692 -211 209 -404
346 -673 478 -252 124 -486 197 -765 240 -126 19 -468 27 -599 15z m474 -430
c656 -74 1243 -450 1591 -1020 275 -452 369 -998 263 -1530 -113 -567 -480
-1085 -989 -1396 -452 -275 -998 -369 -1530 -263 -567 113 -1085 480 -1396
989 -156 258 -260 562 -294 865 -22 200 -10 457 31 665 113 567 480 1085 989
1396 251 153 562 260 850 293 107 12 379 13 485 1z"/>
<path d="M1378 4158 c-14 -5 -28 -18 -31 -30 -7 -27 7 -64 28 -72 9 -3 87 -6
173 -6 124 0 174 -5 237 -20 135 -34 280 -130 345 -227 41 -62 39 -97 -6 -148
-66 -73 -106 -184 -119 -327 l-6 -67 59 34 c66 40 188 87 289 111 92 22 321
22 420 0 106 -23 209 -61 285 -105 l68 -39 -6 76 c-8 114 -53 245 -101 297
-40 44 -63 79 -63 97 0 47 127 176 235 237 108 62 198 81 391 81 180 0 197 5
197 59 0 18 -6 37 -14 41 -44 28 -350 18 -473 -15 -148 -40 -296 -140 -395
-269 -24 -31 -51 -56 -61 -56 -10 0 -49 12 -86 27 -61 24 -83 27 -184 27 -101
0 -123 -3 -184 -27 -37 -15 -76 -27 -86 -27 -10 0 -37 25 -60 55 -117 152
-269 247 -448 280 -90 16 -366 25 -404 13z"/>
<path d="M1280 3258 c-25 -5 -108 -29 -185 -53 -279 -88 -280 -89 -279 -156 2
-53 31 -83 77 -82 19 1 117 29 218 63 190 64 240 73 296 48 30 -12 177 -140
232 -202 14 -15 37 -40 50 -54 26 -29 25 -69 -4 -172 -8 -30 -18 -85 -22 -122
-7 -76 -31 -124 -69 -138 -14 -6 -145 -10 -298 -10 -257 0 -275 -1 -299 -20
-30 -24 -40 -60 -27 -96 20 -53 24 -53 314 -54 294 0 339 -6 360 -49 7 -14 18
-71 25 -126 7 -55 19 -121 27 -147 9 -26 14 -62 12 -80 l-3 -33 -95 0 c-78 0
-103 -4 -140 -22 -107 -53 -175 -143 -309 -409 -85 -168 -94 -205 -63 -244 25
-31 95 -39 117 -12 10 11 67 111 127 223 138 256 144 264 212 284 49 14 59 14
120 -1 88 -22 164 -78 221 -164 106 -160 216 -287 334 -389 112 -96 181 -115
238 -67 l28 24 3 1019 c2 683 0 1030 -7 1054 -19 63 -67 118 -128 146 -76 35
-157 29 -240 -18 -32 -18 -60 -35 -63 -38 -3 -3 -30 -25 -60 -48 -30 -23 -64
-50 -75 -60 -95 -87 -118 -86 -227 10 -46 39 -94 82 -108 95 -45 41 -124 89
-165 101 -47 13 -83 13 -145 -1z"/>
<path d="M3683 3251 c-48 -16 -115 -61 -188 -126 -29 -26 -42 -37 -118 -102
-58 -51 -117 -42 -182 27 -52 55 -151 129 -207 154 -148 67 -279 31 -342 -96
l-26 -52 0 -1022 0 -1023 24 -28 c22 -25 31 -28 83 -27 35 0 71 7 91 18 33 17
151 129 203 193 116 142 175 217 203 261 63 101 156 161 261 169 78 7 128 -9
159 -50 13 -18 73 -124 134 -236 60 -112 117 -212 126 -222 24 -28 81 -25 111
6 42 41 34 71 -70 269 -53 100 -100 190 -106 202 -25 49 -88 121 -133 151 -63
43 -114 57 -211 57 l-80 1 1 45 c0 25 10 90 22 145 11 55 24 118 27 140 3 22
12 47 18 56 31 41 52 44 337 47 172 1 283 7 296 13 23 12 44 49 44 77 0 9 -11
31 -24 47 l-24 30 -297 5 -297 5 -29 33 c-19 21 -29 43 -29 65 0 17 -5 50 -10
72 -24 100 -40 183 -40 212 0 34 23 66 107 148 120 117 169 156 216 170 45 13
54 13 143 -11 52 -13 112 -31 132 -40 20 -8 78 -29 129 -46 82 -27 95 -28 120
-16 53 25 67 104 25 140 -18 16 -32 21 -252 92 -216 71 -262 77 -347 47z"/>
</g>
</svg>
